<mxfile host="app.diagrams.net" modified="2023-11-23T19:56:20.273Z" agent="Mozilla/5.0 (Windows NT 10.0; Win64; x64) AppleWebKit/537.36 (KHTML, like Gecko) Chrome/119.0.0.0 Safari/537.36" etag="rRE60Lt2-R5gqobNHgwg" version="22.1.3" type="device">
  <diagram name="Seite-1" id="AI3WwMv_p7Rr0aOn4IvB">
    <mxGraphModel dx="1389" dy="767" grid="1" gridSize="10" guides="1" tooltips="1" connect="1" arrows="1" fold="1" page="1" pageScale="1" pageWidth="827" pageHeight="1169" math="0" shadow="0">
      <root>
        <mxCell id="0" />
        <mxCell id="1" parent="0" />
        <mxCell id="KRjjYZ1IHPwtd9uW-2P0-2" value="" style="rounded=0;whiteSpace=wrap;html=1;" vertex="1" parent="1">
          <mxGeometry x="140" y="60" width="729" height="700" as="geometry" />
        </mxCell>
        <mxCell id="KRjjYZ1IHPwtd9uW-2P0-44" style="edgeStyle=orthogonalEdgeStyle;rounded=0;orthogonalLoop=1;jettySize=auto;html=1;entryX=0.5;entryY=0;entryDx=0;entryDy=0;" edge="1" parent="1" source="KRjjYZ1IHPwtd9uW-2P0-3" target="KRjjYZ1IHPwtd9uW-2P0-9">
          <mxGeometry relative="1" as="geometry">
            <Array as="points">
              <mxPoint x="499" y="490" />
              <mxPoint x="392" y="490" />
            </Array>
          </mxGeometry>
        </mxCell>
        <mxCell id="KRjjYZ1IHPwtd9uW-2P0-45" style="edgeStyle=orthogonalEdgeStyle;rounded=0;orthogonalLoop=1;jettySize=auto;html=1;" edge="1" parent="1" source="KRjjYZ1IHPwtd9uW-2P0-3" target="KRjjYZ1IHPwtd9uW-2P0-5">
          <mxGeometry relative="1" as="geometry">
            <Array as="points">
              <mxPoint x="499" y="140" />
              <mxPoint x="393" y="140" />
            </Array>
          </mxGeometry>
        </mxCell>
        <mxCell id="KRjjYZ1IHPwtd9uW-2P0-46" style="edgeStyle=orthogonalEdgeStyle;rounded=0;orthogonalLoop=1;jettySize=auto;html=1;" edge="1" parent="1" source="KRjjYZ1IHPwtd9uW-2P0-3" target="KRjjYZ1IHPwtd9uW-2P0-4">
          <mxGeometry relative="1" as="geometry">
            <Array as="points">
              <mxPoint x="499" y="140" />
              <mxPoint x="229" y="140" />
            </Array>
          </mxGeometry>
        </mxCell>
        <mxCell id="KRjjYZ1IHPwtd9uW-2P0-47" style="edgeStyle=orthogonalEdgeStyle;rounded=0;orthogonalLoop=1;jettySize=auto;html=1;entryX=0.5;entryY=0;entryDx=0;entryDy=0;" edge="1" parent="1" source="KRjjYZ1IHPwtd9uW-2P0-3" target="KRjjYZ1IHPwtd9uW-2P0-6">
          <mxGeometry relative="1" as="geometry">
            <Array as="points">
              <mxPoint x="499" y="140" />
              <mxPoint x="596" y="140" />
            </Array>
          </mxGeometry>
        </mxCell>
        <mxCell id="KRjjYZ1IHPwtd9uW-2P0-48" style="edgeStyle=orthogonalEdgeStyle;rounded=0;orthogonalLoop=1;jettySize=auto;html=1;" edge="1" parent="1" source="KRjjYZ1IHPwtd9uW-2P0-3" target="KRjjYZ1IHPwtd9uW-2P0-7">
          <mxGeometry relative="1" as="geometry">
            <Array as="points">
              <mxPoint x="499" y="140" />
              <mxPoint x="766" y="140" />
            </Array>
          </mxGeometry>
        </mxCell>
        <mxCell id="KRjjYZ1IHPwtd9uW-2P0-49" style="edgeStyle=orthogonalEdgeStyle;rounded=0;orthogonalLoop=1;jettySize=auto;html=1;entryX=0.5;entryY=0;entryDx=0;entryDy=0;" edge="1" parent="1" source="KRjjYZ1IHPwtd9uW-2P0-3" target="KRjjYZ1IHPwtd9uW-2P0-10">
          <mxGeometry relative="1" as="geometry">
            <Array as="points">
              <mxPoint x="499" y="490" />
              <mxPoint x="595" y="490" />
            </Array>
          </mxGeometry>
        </mxCell>
        <mxCell id="KRjjYZ1IHPwtd9uW-2P0-50" style="edgeStyle=orthogonalEdgeStyle;rounded=0;orthogonalLoop=1;jettySize=auto;html=1;entryX=0.5;entryY=0;entryDx=0;entryDy=0;" edge="1" parent="1" source="KRjjYZ1IHPwtd9uW-2P0-3" target="KRjjYZ1IHPwtd9uW-2P0-11">
          <mxGeometry relative="1" as="geometry">
            <Array as="points">
              <mxPoint x="499" y="490" />
              <mxPoint x="765" y="490" />
            </Array>
          </mxGeometry>
        </mxCell>
        <mxCell id="KRjjYZ1IHPwtd9uW-2P0-64" style="edgeStyle=orthogonalEdgeStyle;rounded=0;orthogonalLoop=1;jettySize=auto;html=1;entryX=0.5;entryY=0;entryDx=0;entryDy=0;" edge="1" parent="1" source="KRjjYZ1IHPwtd9uW-2P0-3" target="KRjjYZ1IHPwtd9uW-2P0-8">
          <mxGeometry relative="1" as="geometry">
            <Array as="points">
              <mxPoint x="499" y="490" />
              <mxPoint x="228" y="490" />
            </Array>
          </mxGeometry>
        </mxCell>
        <mxCell id="KRjjYZ1IHPwtd9uW-2P0-3" value="Software Product Quality" style="rounded=0;whiteSpace=wrap;html=1;fillColor=#d5e8d4;strokeColor=#82b366;fontStyle=1" vertex="1" parent="1">
          <mxGeometry x="439" y="70" width="120" height="60" as="geometry" />
        </mxCell>
        <mxCell id="KRjjYZ1IHPwtd9uW-2P0-57" style="edgeStyle=orthogonalEdgeStyle;rounded=0;orthogonalLoop=1;jettySize=auto;html=1;entryX=0;entryY=0.5;entryDx=0;entryDy=0;" edge="1" parent="1" source="KRjjYZ1IHPwtd9uW-2P0-4" target="KRjjYZ1IHPwtd9uW-2P0-14">
          <mxGeometry relative="1" as="geometry" />
        </mxCell>
        <mxCell id="KRjjYZ1IHPwtd9uW-2P0-58" style="edgeStyle=orthogonalEdgeStyle;rounded=0;orthogonalLoop=1;jettySize=auto;html=1;entryX=0;entryY=0.5;entryDx=0;entryDy=0;exitX=0.5;exitY=1;exitDx=0;exitDy=0;" edge="1" parent="1" source="KRjjYZ1IHPwtd9uW-2P0-4" target="KRjjYZ1IHPwtd9uW-2P0-15">
          <mxGeometry relative="1" as="geometry">
            <Array as="points">
              <mxPoint x="229" y="240" />
              <mxPoint x="169" y="240" />
              <mxPoint x="169" y="360" />
            </Array>
          </mxGeometry>
        </mxCell>
        <mxCell id="KRjjYZ1IHPwtd9uW-2P0-59" style="edgeStyle=orthogonalEdgeStyle;rounded=0;orthogonalLoop=1;jettySize=auto;html=1;entryX=0;entryY=0.5;entryDx=0;entryDy=0;exitX=0.5;exitY=1;exitDx=0;exitDy=0;" edge="1" parent="1" source="KRjjYZ1IHPwtd9uW-2P0-4" target="KRjjYZ1IHPwtd9uW-2P0-19">
          <mxGeometry relative="1" as="geometry">
            <mxPoint x="220" y="240" as="sourcePoint" />
            <Array as="points">
              <mxPoint x="229" y="240" />
              <mxPoint x="170" y="240" />
              <mxPoint x="170" y="316" />
              <mxPoint x="169" y="316" />
              <mxPoint x="169" y="440" />
            </Array>
          </mxGeometry>
        </mxCell>
        <mxCell id="KRjjYZ1IHPwtd9uW-2P0-4" value="Functional Stability" style="rounded=0;whiteSpace=wrap;html=1;align=center;fillColor=#FFE6CC;strokeColor=#d79b00;" vertex="1" parent="1">
          <mxGeometry x="169" y="161" width="120" height="60" as="geometry" />
        </mxCell>
        <mxCell id="KRjjYZ1IHPwtd9uW-2P0-60" style="edgeStyle=orthogonalEdgeStyle;rounded=0;orthogonalLoop=1;jettySize=auto;html=1;entryX=0;entryY=0.5;entryDx=0;entryDy=0;" edge="1" parent="1" source="KRjjYZ1IHPwtd9uW-2P0-5" target="KRjjYZ1IHPwtd9uW-2P0-16">
          <mxGeometry relative="1" as="geometry" />
        </mxCell>
        <mxCell id="KRjjYZ1IHPwtd9uW-2P0-61" style="edgeStyle=orthogonalEdgeStyle;rounded=0;orthogonalLoop=1;jettySize=auto;html=1;entryX=0;entryY=0.5;entryDx=0;entryDy=0;" edge="1" parent="1" source="KRjjYZ1IHPwtd9uW-2P0-5" target="KRjjYZ1IHPwtd9uW-2P0-17">
          <mxGeometry relative="1" as="geometry">
            <Array as="points">
              <mxPoint x="393" y="240" />
              <mxPoint x="329" y="240" />
              <mxPoint x="329" y="360" />
            </Array>
          </mxGeometry>
        </mxCell>
        <mxCell id="KRjjYZ1IHPwtd9uW-2P0-62" style="edgeStyle=orthogonalEdgeStyle;rounded=0;orthogonalLoop=1;jettySize=auto;html=1;entryX=0;entryY=0.5;entryDx=0;entryDy=0;exitX=0.5;exitY=1;exitDx=0;exitDy=0;" edge="1" parent="1" source="KRjjYZ1IHPwtd9uW-2P0-5" target="KRjjYZ1IHPwtd9uW-2P0-18">
          <mxGeometry relative="1" as="geometry">
            <Array as="points">
              <mxPoint x="393" y="240" />
              <mxPoint x="330" y="240" />
              <mxPoint x="330" y="315" />
              <mxPoint x="329" y="315" />
              <mxPoint x="329" y="440" />
            </Array>
          </mxGeometry>
        </mxCell>
        <mxCell id="KRjjYZ1IHPwtd9uW-2P0-5" value="Performance Efficiency" style="rounded=0;whiteSpace=wrap;html=1;fillColor=#ffe6cc;strokeColor=#d79b00;" vertex="1" parent="1">
          <mxGeometry x="333" y="160" width="120" height="60" as="geometry" />
        </mxCell>
        <mxCell id="KRjjYZ1IHPwtd9uW-2P0-52" style="edgeStyle=orthogonalEdgeStyle;rounded=0;orthogonalLoop=1;jettySize=auto;html=1;entryX=0;entryY=0.5;entryDx=0;entryDy=0;" edge="1" parent="1" source="KRjjYZ1IHPwtd9uW-2P0-6" target="KRjjYZ1IHPwtd9uW-2P0-20">
          <mxGeometry relative="1" as="geometry" />
        </mxCell>
        <mxCell id="KRjjYZ1IHPwtd9uW-2P0-53" style="edgeStyle=orthogonalEdgeStyle;rounded=0;orthogonalLoop=1;jettySize=auto;html=1;entryX=0;entryY=0.5;entryDx=0;entryDy=0;" edge="1" parent="1" source="KRjjYZ1IHPwtd9uW-2P0-6" target="KRjjYZ1IHPwtd9uW-2P0-21">
          <mxGeometry relative="1" as="geometry">
            <Array as="points">
              <mxPoint x="596" y="240" />
              <mxPoint x="526" y="240" />
              <mxPoint x="526" y="360" />
            </Array>
          </mxGeometry>
        </mxCell>
        <mxCell id="KRjjYZ1IHPwtd9uW-2P0-6" value="Compatibility" style="rounded=0;whiteSpace=wrap;html=1;fillColor=#ffe6cc;strokeColor=#d79b00;" vertex="1" parent="1">
          <mxGeometry x="536" y="160" width="120" height="60" as="geometry" />
        </mxCell>
        <mxCell id="KRjjYZ1IHPwtd9uW-2P0-54" style="edgeStyle=orthogonalEdgeStyle;rounded=0;orthogonalLoop=1;jettySize=auto;html=1;entryX=0;entryY=0.5;entryDx=0;entryDy=0;" edge="1" parent="1" source="KRjjYZ1IHPwtd9uW-2P0-7" target="KRjjYZ1IHPwtd9uW-2P0-22">
          <mxGeometry relative="1" as="geometry" />
        </mxCell>
        <mxCell id="KRjjYZ1IHPwtd9uW-2P0-55" style="edgeStyle=orthogonalEdgeStyle;rounded=0;orthogonalLoop=1;jettySize=auto;html=1;entryX=0;entryY=0.5;entryDx=0;entryDy=0;" edge="1" parent="1" source="KRjjYZ1IHPwtd9uW-2P0-7" target="KRjjYZ1IHPwtd9uW-2P0-23">
          <mxGeometry relative="1" as="geometry">
            <Array as="points">
              <mxPoint x="766" y="240" />
              <mxPoint x="696" y="240" />
              <mxPoint x="696" y="360" />
            </Array>
          </mxGeometry>
        </mxCell>
        <mxCell id="KRjjYZ1IHPwtd9uW-2P0-7" value="Usability" style="rounded=0;whiteSpace=wrap;html=1;fillColor=#ffe6cc;strokeColor=#d79b00;" vertex="1" parent="1">
          <mxGeometry x="706" y="160" width="120" height="60" as="geometry" />
        </mxCell>
        <mxCell id="KRjjYZ1IHPwtd9uW-2P0-66" style="edgeStyle=orthogonalEdgeStyle;rounded=0;orthogonalLoop=1;jettySize=auto;html=1;entryX=0;entryY=0.5;entryDx=0;entryDy=0;" edge="1" parent="1" source="KRjjYZ1IHPwtd9uW-2P0-8" target="KRjjYZ1IHPwtd9uW-2P0-25">
          <mxGeometry relative="1" as="geometry">
            <Array as="points">
              <mxPoint x="228" y="585" />
              <mxPoint x="168" y="585" />
              <mxPoint x="168" y="628" />
            </Array>
          </mxGeometry>
        </mxCell>
        <mxCell id="KRjjYZ1IHPwtd9uW-2P0-8" value="Reliability" style="rounded=0;whiteSpace=wrap;html=1;fillColor=#ffe6cc;strokeColor=#d79b00;" vertex="1" parent="1">
          <mxGeometry x="168" y="511" width="120" height="60" as="geometry" />
        </mxCell>
        <mxCell id="KRjjYZ1IHPwtd9uW-2P0-69" style="edgeStyle=orthogonalEdgeStyle;rounded=0;orthogonalLoop=1;jettySize=auto;html=1;entryX=0;entryY=0.5;entryDx=0;entryDy=0;" edge="1" parent="1" source="KRjjYZ1IHPwtd9uW-2P0-9" target="KRjjYZ1IHPwtd9uW-2P0-28">
          <mxGeometry relative="1" as="geometry">
            <Array as="points">
              <mxPoint x="392" y="585" />
              <mxPoint x="328" y="585" />
              <mxPoint x="328" y="628" />
            </Array>
          </mxGeometry>
        </mxCell>
        <mxCell id="KRjjYZ1IHPwtd9uW-2P0-9" value="Security" style="rounded=0;whiteSpace=wrap;html=1;fillColor=#ffe6cc;strokeColor=#d79b00;" vertex="1" parent="1">
          <mxGeometry x="332" y="511" width="120" height="60" as="geometry" />
        </mxCell>
        <mxCell id="KRjjYZ1IHPwtd9uW-2P0-72" style="edgeStyle=orthogonalEdgeStyle;rounded=0;orthogonalLoop=1;jettySize=auto;html=1;entryX=0;entryY=0.5;entryDx=0;entryDy=0;" edge="1" parent="1" source="KRjjYZ1IHPwtd9uW-2P0-10" target="KRjjYZ1IHPwtd9uW-2P0-31">
          <mxGeometry relative="1" as="geometry">
            <Array as="points">
              <mxPoint x="595" y="585" />
              <mxPoint x="525" y="585" />
              <mxPoint x="525" y="628" />
            </Array>
          </mxGeometry>
        </mxCell>
        <mxCell id="KRjjYZ1IHPwtd9uW-2P0-10" value="Maintainability" style="rounded=0;whiteSpace=wrap;html=1;fillColor=#ffe6cc;strokeColor=#d79b00;" vertex="1" parent="1">
          <mxGeometry x="535" y="511" width="120" height="60" as="geometry" />
        </mxCell>
        <mxCell id="KRjjYZ1IHPwtd9uW-2P0-14" value="Functional Completeness" style="rounded=0;whiteSpace=wrap;html=1;align=center;fillColor=#F8CECC;" vertex="1" parent="1">
          <mxGeometry x="189" y="250" width="120" height="60" as="geometry" />
        </mxCell>
        <mxCell id="KRjjYZ1IHPwtd9uW-2P0-15" value="Functional Correctness" style="rounded=0;whiteSpace=wrap;html=1;align=center;fillColor=#F8CECC;" vertex="1" parent="1">
          <mxGeometry x="189" y="330" width="120" height="60" as="geometry" />
        </mxCell>
        <mxCell id="KRjjYZ1IHPwtd9uW-2P0-16" value="Time Behaviour" style="rounded=0;whiteSpace=wrap;html=1;align=center;fillColor=#F8CECC;" vertex="1" parent="1">
          <mxGeometry x="349" y="250" width="120" height="60" as="geometry" />
        </mxCell>
        <mxCell id="KRjjYZ1IHPwtd9uW-2P0-17" value="Resource Utilization" style="rounded=0;whiteSpace=wrap;html=1;align=center;fillColor=#F8CECC;" vertex="1" parent="1">
          <mxGeometry x="349" y="330" width="120" height="60" as="geometry" />
        </mxCell>
        <mxCell id="KRjjYZ1IHPwtd9uW-2P0-18" value="Capacity" style="rounded=0;whiteSpace=wrap;html=1;align=center;fillColor=#F8CECC;" vertex="1" parent="1">
          <mxGeometry x="349" y="410" width="120" height="60" as="geometry" />
        </mxCell>
        <mxCell id="KRjjYZ1IHPwtd9uW-2P0-19" value="Functional Appropriatness" style="rounded=0;whiteSpace=wrap;html=1;align=center;fillColor=#F8CECC;" vertex="1" parent="1">
          <mxGeometry x="189" y="410" width="120" height="60" as="geometry" />
        </mxCell>
        <mxCell id="KRjjYZ1IHPwtd9uW-2P0-20" value="Co-existence" style="rounded=0;whiteSpace=wrap;html=1;align=center;fillColor=#F8CECC;" vertex="1" parent="1">
          <mxGeometry x="546" y="250" width="120" height="60" as="geometry" />
        </mxCell>
        <mxCell id="KRjjYZ1IHPwtd9uW-2P0-21" value="Interoperability" style="rounded=0;whiteSpace=wrap;html=1;align=center;fillColor=#F8CECC;" vertex="1" parent="1">
          <mxGeometry x="546" y="330" width="120" height="60" as="geometry" />
        </mxCell>
        <mxCell id="KRjjYZ1IHPwtd9uW-2P0-22" value="Accessibility" style="rounded=0;whiteSpace=wrap;html=1;align=center;fillColor=#F8CECC;" vertex="1" parent="1">
          <mxGeometry x="716" y="250" width="120" height="60" as="geometry" />
        </mxCell>
        <mxCell id="KRjjYZ1IHPwtd9uW-2P0-23" value="Learnability" style="rounded=0;whiteSpace=wrap;html=1;align=center;fillColor=#F8CECC;" vertex="1" parent="1">
          <mxGeometry x="716" y="330" width="120" height="60" as="geometry" />
        </mxCell>
        <mxCell id="KRjjYZ1IHPwtd9uW-2P0-25" value="Availability" style="rounded=0;whiteSpace=wrap;html=1;align=center;fillColor=#F8CECC;" vertex="1" parent="1">
          <mxGeometry x="188" y="598" width="120" height="60" as="geometry" />
        </mxCell>
        <mxCell id="KRjjYZ1IHPwtd9uW-2P0-28" value="Integrity" style="rounded=0;whiteSpace=wrap;html=1;align=center;fillColor=#F8CECC;" vertex="1" parent="1">
          <mxGeometry x="348" y="598" width="120" height="60" as="geometry" />
        </mxCell>
        <mxCell id="KRjjYZ1IHPwtd9uW-2P0-31" value="Testability" style="rounded=0;whiteSpace=wrap;html=1;align=center;fillColor=#F8CECC;" vertex="1" parent="1">
          <mxGeometry x="545" y="598" width="120" height="60" as="geometry" />
        </mxCell>
        <mxCell id="KRjjYZ1IHPwtd9uW-2P0-35" value="Adaptability" style="rounded=0;whiteSpace=wrap;html=1;align=center;fillColor=#F8CECC;" vertex="1" parent="1">
          <mxGeometry x="715" y="598" width="120" height="60" as="geometry" />
        </mxCell>
        <mxCell id="KRjjYZ1IHPwtd9uW-2P0-75" style="edgeStyle=orthogonalEdgeStyle;rounded=0;orthogonalLoop=1;jettySize=auto;html=1;entryX=0;entryY=0.5;entryDx=0;entryDy=0;" edge="1" parent="1" source="KRjjYZ1IHPwtd9uW-2P0-11" target="KRjjYZ1IHPwtd9uW-2P0-35">
          <mxGeometry relative="1" as="geometry">
            <Array as="points">
              <mxPoint x="765" y="585" />
              <mxPoint x="695" y="585" />
              <mxPoint x="695" y="628" />
            </Array>
          </mxGeometry>
        </mxCell>
        <mxCell id="KRjjYZ1IHPwtd9uW-2P0-11" value="Portability" style="rounded=0;whiteSpace=wrap;html=1;fillColor=#ffe6cc;strokeColor=#d79b00;" vertex="1" parent="1">
          <mxGeometry x="705" y="511" width="120" height="60" as="geometry" />
        </mxCell>
      </root>
    </mxGraphModel>
  </diagram>
</mxfile>
